<svg xmlns="http://www.w3.org/2000/svg" width="190" height="222" data-name="Layer 1" viewBox="0 0 190 222"><path d="M67.6 135.6h18v11.34h-18zm21.6 0h11.5v11.34H89.2zm15.2 0h18v11.34h-18zM95 60.5c-21.1 0-38.7 12.8-39.6 36h79.2c-.9-23.2-18.5-36-39.6-36zm-42.5 75.1H64v11.34H52.5zM41.7 132h106.6v-31.9H41.7zm52.4-12.2H138a1.8 1.8 0 0 1 0 3.6H94.1a1.8 1.8 0 1 1 0-3.6z"/><path d="M95 .4L.1 55.2v109.6L95 219.6l94.9-54.8V55.2zm56.9 133.4a1.7 1.7 0 0 1-1.8 1.8h-9v11.3h9a1.8 1.8 0 1 1 0 3.6H39.9a1.8 1.8 0 0 1 0-3.6h9v-11.3h-9a1.7 1.7 0 0 1-1.8-1.8V98.3a1.7 1.7 0 0 1 1.8-1.8h11.9c.9-25.6 20-39.6 43.2-39.6s42.3 14 43.2 39.6h11.9a1.7 1.7 0 0 1 1.8 1.8z"/><path d="M126 135.6h11.5v11.34H126z"/></svg>