<svg xmlns="http://www.w3.org/2000/svg" width="190" height="222" data-name="Layer 1" viewBox="0 0 190 222"><path d="M68.7 128.7H56.8L41 147.4l2.5 3.6 30.4-16-5.2-6.3zm-21.9-12.9h98.5v9.36H46.8zm86-3.6a43.5 43.5 0 0 0 2.2-13.7 39 39 0 0 0-77.9 0c0 4.7.4 9.5 2.2 13.7zm-73.4 34.7h24.4l-7.3-9-17.1 9zm61.9-18.2l-5.4 6.3 30.6 16 2.5-3.4-15.8-18.9h-11.9z"/><path d="M95 .4L.1 55.2v109.6L95 219.6l94.9-54.8V55.2zm57.6 148.1l-4.1 5.9a1.9 1.9 0 0 1-2.3.5l-8.6-4.5H52.3l-8.6 4.6a2 2 0 0 1-2.3-.5l-4.1-5.9a1.9 1.9 0 0 1 .2-2.2l14.9-17.6H45a1.7 1.7 0 0 1-1.8-1.8v-13a1.7 1.7 0 0 1 1.8-1.8h10.4a50.3 50.3 0 0 1-2-13.7 42.6 42.6 0 0 1 85.1 0 44.2 44.2 0 0 1-2 13.7H147a1.7 1.7 0 0 1 1.8 1.8v13a1.7 1.7 0 0 1-1.8 1.8h-9.2l14.8 17.6a1.9 1.9 0 0 1 0 2.1z"/><path d="M106.2 146.9h24.4l-17.1-9-7.3 9zm-32.8-18.2l15.1 18.2h13l15.1-18.2H73.4z"/></svg>