<svg xmlns="http://www.w3.org/2000/svg" width="190" height="222" data-name="Layer 1" viewBox="0 0 190 222"><path d="M44.8 126.9h48.4v19.98H44.8zm48.4-17.1V73.5l-25.9 36.3h25.9zm3.6-40.1v40.1h49.7a53.5 53.5 0 0 0-49.7-40.1zm0 57.2h8.1v19.98h-8.1zm-5.4-57c-23 1.4-42.3 18.2-47.9 40h19.3z"/><path d="M95 .4L.1 55.2v109.6L95 219.6l94.9-54.8V55.2zm77.6 126.5h-23.8v21.8a1.7 1.7 0 0 1-1.8 1.8H43a1.7 1.7 0 0 1-1.8-1.8v-21.8H17.4a1.8 1.8 0 0 1 0-3.6h13.5v-11.7a1.7 1.7 0 0 1 1.8-1.8h7a57.1 57.1 0 0 1 55.1-43.7c.2-.2.4-.2.7 0a56.9 56.9 0 0 1 54.7 43.7h7a1.7 1.7 0 0 1 1.8 1.8v11.7h13.5a1.8 1.8 0 1 1 0 3.6z"/><path d="M34.5 113.4h121v9.9h-121zm74 13.5h36.7v19.98h-36.7z"/></svg>